HIERARCHY
ROOT hip
{
	OFFSET 0.000000 0.000000 0.000000 
	CHANNELS 6 Xposition Yposition Zposition Zrotation Xrotation Yrotation
	JOINT abdomen
	{
		OFFSET 0.000000 3.402643 0.000000 
		CHANNELS 3 Zrotation Xrotation Yrotation
		JOINT chest
		{
			OFFSET 0.000000 8.438565 -0.680529 
			CHANNELS 3 Zrotation Xrotation Yrotation
			JOINT neck
			{
				OFFSET 0.000000 10.207942 -0.272212 
				CHANNELS 3 Zrotation Xrotation Yrotation
				JOINT head
				{
					OFFSET 0.000000 3.130431 0.000000 
					CHANNELS 3 Zrotation Xrotation Yrotation
					End Site
					{
						OFFSET 0.000000 3.130435 0.000000 
					}
				}
			}
			JOINT lCollar
			{
				OFFSET 3.470700 6.669187 -0.816635 
				CHANNELS 3 Zrotation Xrotation Yrotation
				JOINT lShldr
				{
					OFFSET 3.198488 0.000000 0.000000 
					CHANNELS 3 Zrotation Xrotation Yrotation
					JOINT lForeArm
					{
						OFFSET 10.139888 0.000000 0.000000 
						CHANNELS 3 Zrotation Xrotation Yrotation
						JOINT lHand
						{
							OFFSET 8.370511 0.000000 0.000000 
							CHANNELS 3 Zrotation Xrotation Yrotation
							End Site
							{
								OFFSET 4.083176 0.000000 0.000000 
							}
						}
					}
				}
			}
			JOINT rCollar
			{
				OFFSET -3.470700 6.669187 -0.816635 
				CHANNELS 3 Zrotation Xrotation Yrotation
				JOINT rShldr
				{
					OFFSET -3.198488 0.000000 0.000000 
					CHANNELS 3 Zrotation Xrotation Yrotation
					JOINT rForeArm
					{
						OFFSET -10.139888 0.000000 0.000000 
						CHANNELS 3 Zrotation Xrotation Yrotation
						JOINT rHand
						{
							OFFSET -8.370511 0.000000 0.000000 
							CHANNELS 3 Zrotation Xrotation Yrotation
							End Site
							{
								OFFSET -4.083176 0.000000 0.000000 
							}
						}
					}
				}
			}
		}
	}
	JOINT lThigh
	{
		OFFSET 5.308129 -1.633274 1.361059 
		CHANNELS 3 Zrotation Xrotation Yrotation
		JOINT lShin
		{
			OFFSET -2.041588 -20.007561 0.000000 
			CHANNELS 3 Zrotation Xrotation Yrotation
			JOINT lFoot
			{
				OFFSET 0.000000 -19.190928 -1.224953 
				CHANNELS 3 Zrotation Xrotation Yrotation
				End Site
				{
					OFFSET 0.000000 -2.449906 4.627600 
				}
			}
		}
	}
	JOINT rThigh
	{
		OFFSET -5.308129 -1.633274 1.361059 
		CHANNELS 3 Zrotation Xrotation Yrotation
		JOINT rShin
		{
			OFFSET 2.041588 -20.007561 0.000000 
			CHANNELS 3 Zrotation Xrotation Yrotation
			JOINT rFoot
			{
				OFFSET 0.000000 -19.190928 -1.224953 
				CHANNELS 3 Zrotation Xrotation Yrotation
				End Site
				{
					OFFSET 0.000000 -2.449906 4.627600 
				}
			}
		}
	}
}
MOTION
Frames: 8
Frame Time: 0.016667
2.614640 43.251205 -2.116810 -7.373050 15.146500 -1.045730 -3.048040 15.978400 1.121730 0.270037 -13.338800 0.597453 -9.451810 -17.485500 0.910380 1.206600 -0.369008 1.108090 -1.998780 -0.069785 1.998780 -25.113400 -53.017300 74.561096 0.670636 -1.081650 -12.455000 0.501105 80.806198 -0.587004 1.998780 -0.069785 -1.998780 51.437199 -46.263000 -27.731400 1.803970 1.468030 80.770103 0.057993 -35.556801 -0.214558 6.324979 -31.244801 -4.812740 2.204570 31.358500 1.531430 -0.132269 -11.089000 1.159230 -8.547635 -20.020796 -12.433198 135.154007 88.976196 -139.612000 -2.919700 -16.131001 -5.841300 
2.625180 43.229504 -2.033700 -9.121100 16.826200 0.361030 -3.589300 16.172899 1.506900 0.993222 -13.776500 0.958677 -10.429500 -17.200701 1.237980 0.826635 -0.174008 1.310500 -1.998780 -0.069785 1.998780 6.772220 -51.595501 100.075996 0.643949 -1.071900 -11.381700 178.483994 85.060997 -178.585007 1.998780 -0.069785 -1.998780 49.271198 -46.599400 -29.906799 1.796430 1.441310 79.979698 0.055172 -36.776798 -0.218720 7.091645 -33.372200 -7.639411 2.177800 32.166599 1.596350 0.111404 -11.433200 2.223600 -8.297025 -14.442801 -12.571799 -2.761670 76.679802 -1.504880 -4.798950 -16.355400 -11.404500 
2.600010 42.901005 -1.977870 -10.507800 18.291000 1.347260 -4.090290 16.327600 1.790550 1.426200 -14.361200 1.162540 -11.060600 -17.500000 1.866980 0.456649 -0.252607 1.668460 -1.998780 -0.069785 1.998780 19.550100 -46.603199 108.956001 0.647841 -1.073280 -11.537800 178.735001 83.889397 -178.837006 1.998780 -0.069785 -1.998780 47.243099 -46.286201 -32.212700 1.797100 1.443620 80.048103 0.053615 -37.421799 -0.220977 7.531151 -36.079800 -9.612311 2.178940 34.728001 1.660750 0.243475 -13.319600 2.680770 -8.165685 -9.695600 -11.850999 -4.071980 62.067501 -0.090993 -6.097790 -18.130301 -14.821200 
2.482580 42.486504 -2.027870 -10.468800 19.228600 1.259480 -4.301460 16.254000 2.069850 1.426140 -14.885200 1.578870 -10.999800 -17.906000 2.491540 0.349716 -0.369962 1.988480 -1.998780 -0.069785 1.998780 28.279600 -42.819698 113.136002 0.655859 -1.076180 -11.859800 178.701996 84.074898 -178.804001 1.998780 -0.069785 -1.998780 46.093800 -46.654598 -34.333302 1.805150 1.472330 80.896896 0.052725 -37.782799 -0.222260 7.369331 -38.062000 -9.887482 2.137800 36.713501 1.764030 0.179283 -14.639200 2.283540 -9.113664 -5.996554 -10.228198 -4.349410 47.947399 0.207747 -4.253180 -18.496201 -10.770100 
2.327600 42.375404 -2.091000 -8.623040 18.955099 -0.527921 -3.781580 15.318900 2.016020 0.896457 -15.595000 1.878840 -10.954300 -18.877600 3.273230 0.117396 -1.083270 2.463850 -1.998780 -0.069785 1.998780 32.113098 -40.341702 113.485001 0.662891 -1.078760 -12.142800 178.723007 83.957703 -178.824997 1.998780 -0.069785 -1.998780 46.146099 -45.984699 -35.791801 1.817290 1.519110 82.272697 0.054421 -37.089802 -0.219810 6.681410 -37.644402 -7.990661 2.115050 36.665798 1.774790 0.075588 -14.715100 1.717100 -11.167838 -3.073706 -8.296999 -4.349330 36.457699 0.210415 -1.667380 -18.949100 -4.621420 
2.100520 42.557705 -2.250060 -6.347650 17.910101 -3.096140 -3.156960 14.853100 1.972420 0.272845 -15.424100 2.270340 -10.901100 -19.230801 4.031940 0.000853 -1.181160 2.852900 -1.998780 -0.069785 1.998780 30.645700 -42.955799 110.898003 0.666041 -1.079930 -12.269600 178.330994 85.578499 -178.432007 1.998780 -0.069785 -1.998780 48.666599 -46.249199 -34.107498 1.825910 1.555470 83.336304 0.057753 -35.663799 -0.214917 5.967520 -35.698200 -6.176161 2.119470 35.057301 1.747140 0.219900 -14.323100 1.842140 -12.579447 -2.720577 -8.094297 -4.303030 30.584400 0.179143 0.043515 -18.327801 -0.359004 
1.841890 42.912304 -2.488010 -6.777340 17.548901 -5.273590 -3.238370 14.900400 2.167000 0.312391 -15.106000 2.658520 -11.273200 -18.410700 4.999580 -0.175626 -0.576071 3.285080 -1.998780 -0.069785 1.998780 15.582100 -49.465000 98.931801 0.681740 -1.085870 -12.903800 0.808343 83.608597 -0.897230 1.998780 -0.069785 -1.998780 53.443802 -46.279099 -29.104799 1.825980 1.555800 83.346100 0.063443 -32.997799 -0.206254 7.938118 -34.463100 -5.373301 2.185710 33.373798 1.636030 0.795393 -13.875100 3.244730 -10.363455 -5.040795 -9.744697 -3.987610 28.988199 -0.055965 -0.005192 -18.152700 -0.281541 
1.590710 43.316605 -2.739070 -7.832030 18.310499 -7.002630 -3.073010 14.161200 2.090690 0.689452 -15.838600 2.650810 -12.217100 -17.340300 6.858150 -0.712415 -0.108721 4.250410 -1.998780 -0.069785 1.998780 -16.936899 -49.838200 72.912300 0.759679 -1.118390 -16.094601 0.047477 63.375000 -0.114385 1.998780 -0.069785 -1.998780 57.280899 -44.490299 -24.831200 1.826810 1.559480 83.453400 0.074755 -30.204901 -0.186475 10.394091 -34.124001 -5.393551 2.244770 31.179100 1.511000 1.528130 -13.110700 5.358250 -7.334553 -8.355601 -11.512198 -3.107500 26.371000 -0.625184 -0.378054 -18.341801 -0.471581 
